# xmcd
#
# Track frame offsets:
#	150
#	17445
#	33725
#	45122
#	62732
#	78277
#	92387
#	106017
#	120955
#	137062
#	155740
#	170142
#	186120
#	201257
#	213120
#	226750
#	242755
#
# Disc length: 3480 seconds
# Revision: 0
# Processed by: cddbd v1.5.2PL0 Copyright (c) Steve Scherf et al.
# Submitted via: dBpowerAMP V12.0
#
DISCID=ce0d9611
DTITLE=Tommy Tate - Soul Revelations - The Complete KoKo Recordings
DYEAR=1996
DGENRE=Soul
TTITLE0=Help me Love
TTITLE1=School of Life
TTITLE2=Sanity
TTITLE3=I Just Can't Believe Your Love For me
TTITLE4=Hardtimes SOS
TTITLE5=Revelations
TTITLE6=(You Brought Me) A Mighty Long Way
TTITLE7=If You Got to Love Somebody (Why Not Take a Chance on Me)
TTITLE8=I Remember
TTITLE9=Always
TTITLE10=I Ain't Gonna Worry
TTITLE11=More Power to You
TTITLE12=If You Ain't Man Enough
TTITLE13=It Ain't no Laughing Matter
TTITLE14=Identify (I've Got to Know Who I Am)
TTITLE15=It's a Bad Situation
TTITLE16=I'm so Satisfied
EXTD=
EXTT0=
EXTT1=
EXTT2=
EXTT3=
EXTT4=
EXTT5=
EXTT6=
EXTT7=
EXTT8=
EXTT9=
EXTT10=
EXTT11=
EXTT12=
EXTT13=
EXTT14=
EXTT15=
EXTT16=
PLAYORDER=
